# xmcd
#
# Track frame offsets:
# 150
# 20137
# 35660
# 55570
# 72244
# 93002
# 111790
# 130376
# 152796
# 169638
# 187977
# 205808
# 221727
# 241139
# 258385
#
# Disc length: 3646 seconds
#
#
# Revision: 0
# Processed by: cddbd v1.5.2PL0 Copyright (c) Steve Scherf et al.
# Submitted via: FreeRIP 2.951 
#
DISCID=cd0e3c0f
DTITLE=Zezé Di Camargo and Luciano - Zezé Di Camargo and Luciano - 15 anos de Sucesso
DYEAR=1900
DGENRE=Sertanejo
TTITLE0=Fui Eu
TTITLE1=Nosso Amor é Ouro
TTITLE2=Sufocado
TTITLE3=A Ferro e Fogo
TTITLE4=Passou da Conta
TTITLE5=Da Boca Pra Fora
TTITLE6=Pare!
TTITLE7=Pra não Pensar em Você
TTITLE8=Toma Juízo
TTITLE9=Indiferença
TTITLE10=Pão de Mel
TTITLE11=Como um Anjo
TTITLE12=Saudade Bandida
TTITLE13=Coração está em Pedaço
TTITLE14=É o Amor
EXTD=
EXTT0=
EXTT1=
EXTT2=
EXTT3=
EXTT4=
EXTT5=
EXTT6=
EXTT7=
EXTT8=
EXTT9=
EXTT10=
EXTT11=
EXTT12=
EXTT13=
EXTT14=
PLAYORDER=
